<?xml version="1.0" standalone="no"?>
<!DOCTYPE svg PUBLIC "-//W3C//DTD SVG 20010904//EN"
 "http://www.w3.org/TR/2001/REC-SVG-20010904/DTD/svg10.dtd">
<svg version="1.0" xmlns="http://www.w3.org/2000/svg"
 width="255.000000pt" height="255.000000pt" viewBox="0 0 255.000000 255.000000"
 preserveAspectRatio="xMidYMid meet">
<metadata>
Created by potrace 1.11, written by Peter Selinger 2001-2013
</metadata>
<g transform="translate(0.000000,255.000000) scale(0.100000,-0.100000)"
fill="#000000" stroke="none">
<path d="M1202 2488 c-7 -7 -12 -38 -12 -69 l0 -57 -114 3 c-62 1 -118 0 -123
-4 -19 -12 -22 -49 -4 -57 13 -6 147 -15 216 -15 18 0 20 -6 20 -57 l0 -57
-86 -1 c-85 0 -111 -10 -116 -39 -1 -10 22 -36 32 -35 3 0 41 0 86 0 77 0 80
-1 79 -22 -1 -13 -1 -25 0 -28 6 -14 5 -72 -1 -76 -4 -2 -6 -16 -3 -29 4 -22
1 -25 -28 -26 -48 -1 -76 -7 -138 -30 -70 -26 -140 -61 -170 -85 -145 -116
-209 -259 -204 -454 4 -122 3 -116 21 -179 9 -33 15 -102 16 -173 0 -65 5
-118 10 -118 5 0 7 -6 4 -12 -4 -13 12 -65 36 -118 29 -63 167 -170 220 -170
9 0 19 -4 22 -10 3 -5 19 -10 35 -10 28 0 28 -1 -26 -52 -30 -28 -64 -67 -76
-87 -12 -20 -28 -42 -36 -50 -17 -18 -101 -196 -92 -196 1 0 -4 -13 -10 -30
-7 -16 -14 -41 -15 -55 -2 -14 -6 -40 -10 -57 l-7 -33 671 0 c632 0 671 1 672
18 4 68 -33 222 -53 222 -5 0 -6 4 -3 10 7 11 -55 135 -100 198 -16 23 -58 72
-93 109 l-63 65 33 28 c26 22 38 26 60 19 15 -4 28 -5 29 -1 0 4 3 16 5 27 3
11 7 63 10 115 3 52 10 101 17 108 20 25 25 108 8 140 -5 10 -12 61 -15 113
-7 117 -16 196 -25 223 -4 12 -7 28 -6 36 0 8 -9 43 -21 77 -12 34 -19 64 -16
67 3 3 0 6 -6 6 -7 0 -12 5 -12 11 0 22 -68 115 -113 154 -64 58 -87 76 -87
67 0 -4 -4 -2 -8 3 -9 14 -112 62 -149 71 -16 4 -32 9 -38 12 -11 7 -21 9 -85
17 -91 12 -85 5 -85 95 0 46 4 81 10 81 6 1 44 2 85 4 102 3 100 2 100 30 0
26 -23 44 -56 44 -10 0 -45 0 -76 1 l-58 1 0 58 0 57 112 -2 c116 -3 138 3
138 37 0 29 -29 37 -134 38 -54 1 -101 3 -106 6 -5 3 -7 29 -6 58 2 38 -1 55
-13 64 -20 16 -34 16 -49 1z"/>
<path d="M430 2474 c0 -4 35 -41 78 -83 58 -57 73 -76 60 -79 -10 -2 -18 -7
-18 -12 0 -4 -9 -10 -20 -13 -11 -3 -20 -10 -20 -15 0 -10 45 -51 91 -84 13
-9 33 -24 44 -33 42 -33 161 -105 173 -105 24 0 11 21 -64 105 -41 47 -72 89
-69 95 4 6 11 8 16 5 5 -4 9 -2 9 2 0 5 15 15 34 21 24 9 33 18 31 30 -2 9 -4
20 -4 25 -1 4 -12 7 -25 7 -13 0 -26 7 -30 15 -3 8 -9 14 -13 13 -7 -3 -73 27
-205 92 -27 14 -39 15 -48 6 -10 -8 -11 -8 -6 2 4 6 2 12 -3 12 -6 0 -11 -3
-11 -6z"/>
<path d="M1960 2408 c-30 -10 -59 -21 -65 -22 -5 -1 -26 -9 -45 -17 -19 -9
-63 -26 -97 -38 -34 -13 -69 -31 -78 -41 -15 -17 -13 -20 29 -46 25 -16 45
-33 46 -38 0 -4 -36 -43 -80 -86 -89 -86 -101 -109 -42 -84 20 9 49 21 65 27
15 6 27 15 27 19 0 4 5 8 10 8 6 0 50 25 97 55 48 30 91 55 95 55 20 0 5 32
-27 53 -32 22 -33 24 -17 38 10 8 42 34 72 59 30 25 61 50 68 57 22 21 -2 22
-58 1z"/>
<path d="M275 1278 c-72 -9 -81 -11 -120 -27 -16 -7 -37 -14 -45 -15 -23 -4
-72 -72 -72 -101 0 -28 65 -100 81 -90 5 2 14 -2 21 -10 7 -8 20 -15 30 -15 9
0 20 -3 23 -7 4 -3 17 -8 29 -9 13 -2 37 -6 53 -9 62 -12 187 -7 202 8 23 23
-6 44 -61 43 -25 -1 -46 1 -46 4 0 3 -13 7 -30 8 -16 1 -41 7 -56 12 -14 6
-30 8 -35 4 -5 -3 -9 0 -9 6 0 6 -6 10 -12 8 -24 -4 -108 41 -102 56 5 14 116
67 145 69 11 1 19 4 19 8 0 4 8 6 18 5 18 -3 82 23 82 33 -1 27 -23 30 -115
19z"/>
<path d="M2170 1233 c0 -15 14 -24 53 -36 30 -9 59 -17 65 -17 24 0 142 -60
142 -73 0 -24 -119 -70 -210 -82 -25 -4 -61 -8 -80 -11 -56 -7 -71 -15 -68
-32 8 -39 195 -37 310 3 40 13 74 29 76 35 2 5 9 10 16 10 17 0 45 52 44 81
-1 25 -56 92 -69 83 -4 -2 -10 0 -14 6 -10 17 -107 41 -187 46 -72 5 -78 4
-78 -13z"/>
</g>
</svg>
